# xmcd
#
# Track frame offsets:
# 150
# 40427
# 65959
# 84538
# 113749
# 150305
# 179379
# 195179
# 213013
# 228531
# 259394
# 286203
# 311684
# 335940
#
# Disc length: 4718 seconds
#
# Revision: 0
# Processed by: cddbd v1.4PL0 Copyright (c) Steve Scherf et al.
# Submitted via: Audion 3.0.2 (http://www.panic.com/audion/)
#
DISCID=cb126c0e
DTITLE=Various Artist - Techno
DYEAR=1900
DGENRE=
TTITLE0=Celtic Bagpipes
TTITLE1=Beethoven-Moonlight Sonnota 
TTITLE2=Ava Maria
TTITLE3=Star Guitar
TTITLE4=Bach-Tocatta Et Fuga
TTITLE5=Enigmla-Rave
TTITLE6=Beethoven-Fur Elis
TTITLE7=Celtic Trance
TTITLE8=Moby-Mozart-Piano Concerto
TTITLE9=Enya-Matrix Theme
TTITLE10=Mozart-Okay Dragon
TTITLE11=Enya-Sail A Way
TTITLE12=Mozart-Cannon in D
TTITLE13=Ch icken Dance
EXTD=
EXTT0=
EXTT1=
EXTT2=
EXTT3=
EXTT4=
EXTT5=
EXTT6=
EXTT7=
EXTT8=
EXTT9=
EXTT10=
EXTT11=
EXTT12=
EXTT13=
PLAYORDER=
